<svg 
 xmlns="http://www.w3.org/2000/svg"
 xmlns:xlink="http://www.w3.org/1999/xlink"
 width="20px" height="20px">
<path fill-rule="evenodd"  fill="rgb(255, 255, 255)"
 d="M9.1000,19.999 C4.477,19.999 0.000,15.522 0.000,9.1000 C0.000,4.477 4.477,0.000 9.1000,0.000 C15.522,0.000 19.999,4.477 19.999,9.1000 C19.999,15.522 15.522,19.999 9.1000,19.999 ZM13.973,9.145 L9.361,4.501 C8.863,3.999 8.052,3.996 7.550,4.495 C7.048,4.993 7.045,5.805 7.544,6.306 L11.259,10.047 L7.544,13.788 C7.045,14.290 7.048,15.101 7.550,15.599 C7.800,15.847 8.126,15.971 8.453,15.971 C8.782,15.971 9.111,15.845 9.361,15.593 L13.973,10.950 C14.469,10.450 14.469,9.644 13.973,9.145 Z"/>
</svg>